<svg aria-hidden="true" style="position: absolute; width: 0; height: 0; overflow: hidden;" version="1.1" xmlns="http://www.w3.org/2000/svg" xmlns:xlink="http://www.w3.org/1999/xlink">
<defs>
<symbol id="more" viewBox="0 0 32 32">
<path d="M14.25 7.219c0 0.464 0.184 0.909 0.513 1.237s0.773 0.513 1.237 0.513 0.909-0.184 1.237-0.513c0.328-0.328 0.513-0.773 0.513-1.237s-0.184-0.909-0.513-1.237c-0.328-0.328-0.773-0.513-1.237-0.513s-0.909 0.184-1.237 0.513c-0.328 0.328-0.513 0.773-0.513 1.237zM14.25 15.969c0 0.464 0.184 0.909 0.513 1.237s0.773 0.513 1.237 0.513 0.909-0.184 1.237-0.513c0.328-0.328 0.513-0.773 0.513-1.237s-0.184-0.909-0.513-1.237c-0.328-0.328-0.773-0.513-1.237-0.513s-0.909 0.184-1.237 0.513c-0.328 0.328-0.513 0.773-0.513 1.237zM14.25 24.719c0 0.464 0.184 0.909 0.513 1.237s0.773 0.513 1.237 0.513 0.909-0.184 1.237-0.513c0.328-0.328 0.513-0.773 0.513-1.237s-0.184-0.909-0.513-1.237c-0.328-0.328-0.773-0.513-1.237-0.513s-0.909 0.184-1.237 0.513c-0.328 0.328-0.513 0.773-0.513 1.237z"></path>
</symbol>
<symbol id="arrow" viewBox="0 0 32 32">
<path d="M30.783 16.666c0.367-0.368 0.367-0.963 0-1.331l-5.99-5.99c-0.368-0.368-0.964-0.368-1.331 0s-0.368 0.963 0 1.331l5.324 5.324-5.324 5.324c-0.368 0.368-0.368 0.963 0 1.331s0.963 0.368 1.331 0l5.99-5.99zM0 16.941h30.118v-1.882h-30.118v1.882z"></path>
</symbol>
<symbol id="icon-checkbox" viewBox="0 0 32 32">
<path d="M2.667 2.667h25.333v25.333h-25.333v-25.333z"></path>
<path d="M13.157 18.953c-0.182 0-0.364-0.062-0.502-0.186l-4.352-3.889c-0.278-0.248-0.278-0.65 0-0.898s0.727-0.248 1.005 0l3.849 3.44 8.201-7.329c0.278-0.248 0.727-0.248 1.005 0s0.278 0.65 0 0.898l-8.703 7.778c-0.139 0.124-0.321 0.186-0.502 0.186z"></path>
</symbol>
<symbol id="settings" viewBox="0 0 32 32">
<path fill="#f7f7ff" style="fill: var(--color1, #f7f7ff)" d="M0 0h32v32h-32v-32z"></path>
<path d="M12.872 22.667c0.186-0.722 0.843-1.257 1.623-1.257s1.437 0.535 1.623 1.257h9.062c0.059 0 0.116 0.012 0.17 0.036 0.050 0.022 0.096 0.054 0.133 0.094 0.036 0.038 0.065 0.083 0.085 0.131 0.018 0.044 0.028 0.092 0.031 0.14 0.002 0.046-0.003 0.092-0.016 0.136-0.011 0.039-0.028 0.076-0.051 0.111-0.049 0.075-0.122 0.133-0.205 0.165-0.046 0.017-0.095 0.026-0.144 0.026h-9.065c-0.186 0.722-0.843 1.257-1.623 1.257s-1.437-0.535-1.623-1.257h-4.453c-0.049 0-0.098-0.008-0.144-0.026-0.085-0.031-0.158-0.090-0.207-0.166-0.022-0.034-0.039-0.072-0.051-0.111-0.013-0.044-0.018-0.091-0.016-0.136 0.002-0.048 0.013-0.095 0.031-0.14 0.020-0.048 0.049-0.093 0.085-0.131 0.038-0.039 0.083-0.072 0.133-0.094 0.054-0.024 0.111-0.036 0.17-0.036h4.453zM14.495 22.248c0.463 0 0.838 0.375 0.838 0.838s-0.376 0.838-0.838 0.838c-0.463 0-0.838-0.375-0.838-0.838s0.376-0.838 0.838-0.838zM19.577 15.962c0.186-0.722 0.843-1.257 1.623-1.257s1.437 0.535 1.623 1.257h2.358c0.059 0 0.116 0.012 0.17 0.036 0.050 0.022 0.096 0.054 0.133 0.094 0.036 0.038 0.065 0.083 0.085 0.131 0.018 0.044 0.028 0.092 0.031 0.14 0.002 0.046-0.003 0.092-0.016 0.136-0.011 0.039-0.028 0.076-0.051 0.111-0.049 0.075-0.122 0.133-0.205 0.165-0.046 0.017-0.095 0.026-0.144 0.026h-2.36c-0.186 0.722-0.843 1.257-1.623 1.257s-1.437-0.535-1.623-1.257h-11.158c-0.059 0-0.116-0.012-0.17-0.036-0.050-0.022-0.096-0.054-0.133-0.094-0.036-0.038-0.065-0.083-0.085-0.131-0.018-0.044-0.028-0.092-0.031-0.14-0.002-0.046 0.003-0.092 0.016-0.136 0.011-0.039 0.028-0.076 0.051-0.111 0.049-0.076 0.123-0.134 0.207-0.166 0.046-0.017 0.095-0.026 0.144-0.026h11.158zM21.2 15.543c0.463 0 0.838 0.375 0.838 0.838s-0.375 0.838-0.838 0.838c-0.463 0-0.838-0.375-0.838-0.838s0.375-0.838 0.838-0.838zM10.148 9.257c0.186-0.722 0.843-1.257 1.623-1.257s1.437 0.535 1.623 1.257h11.786c0.059 0 0.116 0.012 0.17 0.036 0.050 0.022 0.096 0.054 0.133 0.094 0.036 0.038 0.065 0.083 0.085 0.131 0.018 0.044 0.028 0.092 0.031 0.14 0.002 0.046-0.003 0.092-0.016 0.136-0.011 0.039-0.028 0.076-0.051 0.111-0.049 0.075-0.122 0.133-0.205 0.165-0.046 0.017-0.095 0.026-0.144 0.026h-11.789c-0.186 0.722-0.843 1.257-1.623 1.257s-1.437-0.535-1.623-1.257h-1.729c-0.049 0-0.098-0.008-0.144-0.026-0.085-0.031-0.158-0.090-0.207-0.166-0.022-0.034-0.039-0.072-0.051-0.111-0.013-0.044-0.018-0.090-0.016-0.136 0.002-0.048 0.013-0.095 0.031-0.14 0.020-0.048 0.049-0.093 0.085-0.131 0.038-0.039 0.083-0.072 0.133-0.094 0.054-0.024 0.111-0.036 0.17-0.036h1.729zM11.771 8.838c0.463 0 0.838 0.375 0.838 0.838s-0.375 0.838-0.838 0.838c-0.463 0-0.838-0.376-0.838-0.838s0.375-0.838 0.838-0.838z"></path>
</symbol>
<symbol id="arrowDown" viewBox="0 0 32 32">
<path d="M15.346 21.117c-0.299 0.001-0.588-0.103-0.818-0.294l-7.667-6.397c-0.261-0.217-0.425-0.529-0.456-0.867s0.073-0.675 0.29-0.936c0.217-0.261 0.529-0.426 0.866-0.457s0.674 0.073 0.935 0.29l6.849 5.731 6.849-5.527c0.131-0.106 0.281-0.186 0.442-0.233s0.331-0.063 0.498-0.046c0.167 0.018 0.33 0.069 0.477 0.149s0.278 0.19 0.384 0.322c0.117 0.131 0.206 0.286 0.26 0.453s0.074 0.344 0.057 0.52c-0.017 0.175-0.070 0.345-0.155 0.499s-0.202 0.289-0.342 0.396l-7.667 6.179c-0.236 0.161-0.52 0.237-0.805 0.217z"></path>
</symbol>
<symbol id="facebook" viewBox="0 0 32 32">
<path d="M20.259 6.596h2.57v-4.477c-0.443-0.061-1.969-0.198-3.745-0.198-8.133 0-5.92 9.211-6.244 10.56h-4.091v5.005h4.090v12.595h5.014v-12.593h3.924l0.623-5.005h-4.549c0.221-3.313-0.893-5.885 2.406-5.885v0z"></path>
</symbol>
<symbol id="instagram" viewBox="0 0 32 32">
<path d="M27.881 11.25c-0.056-1.226-0.251-2.064-0.536-2.796-0.289-0.769-0.743-1.465-1.329-2.040-0.575-0.586-1.272-1.040-2.040-1.329-0.733-0.285-1.57-0.479-2.796-0.535-1.229-0.056-1.621-0.070-4.75-0.070s-3.521 0.013-4.75 0.069c-1.226 0.056-2.063 0.251-2.796 0.536-0.769 0.289-1.465 0.743-2.040 1.329-0.586 0.575-1.040 1.272-1.329 2.040-0.285 0.733-0.479 1.57-0.535 2.796-0.056 1.229-0.070 1.621-0.070 4.75s0.013 3.521 0.070 4.75c0.056 1.226 0.251 2.064 0.535 2.796 0.289 0.768 0.743 1.465 1.329 2.040 0.575 0.586 1.272 1.040 2.040 1.329 0.733 0.285 1.57 0.48 2.796 0.536 1.229 0.056 1.621 0.069 4.75 0.069s3.521-0.013 4.75-0.069c1.226-0.056 2.064-0.251 2.796-0.536 1.547-0.598 2.771-1.822 3.369-3.369 0.285-0.733 0.48-1.57 0.536-2.796 0.056-1.229 0.069-1.621 0.069-4.75s-0.013-3.521-0.069-4.75v0zM25.807 20.655c-0.051 1.123-0.239 1.733-0.397 2.139-0.388 1.005-1.182 1.799-2.186 2.186-0.406 0.158-1.016 0.345-2.139 0.397-1.214 0.056-1.579 0.067-4.655 0.067s-3.441-0.012-4.655-0.067c-1.123-0.051-1.733-0.239-2.139-0.397-0.5-0.185-0.953-0.479-1.325-0.862-0.383-0.372-0.677-0.824-0.862-1.325-0.158-0.406-0.345-1.016-0.397-2.139-0.055-1.215-0.067-1.579-0.067-4.655s0.012-3.44 0.067-4.655c0.051-1.123 0.239-1.733 0.397-2.139 0.185-0.5 0.479-0.953 0.862-1.325 0.372-0.383 0.824-0.677 1.325-0.862 0.406-0.158 1.016-0.345 2.139-0.397 1.215-0.055 1.579-0.067 4.655-0.067h-0c3.076 0 3.44 0.012 4.655 0.067 1.123 0.051 1.733 0.239 2.139 0.397 0.5 0.185 0.953 0.479 1.325 0.862 0.383 0.372 0.677 0.824 0.862 1.325 0.158 0.406 0.346 1.016 0.397 2.139 0.055 1.215 0.067 1.579 0.067 4.655s-0.012 3.44-0.067 4.655z"></path>
<path d="M16.429 10.084c-3.267 0-5.916 2.649-5.916 5.916s2.649 5.916 5.916 5.916c3.267 0 5.916-2.648 5.916-5.916s-2.649-5.916-5.916-5.916v0zM16.429 19.84c-2.121-0-3.84-1.719-3.84-3.84s1.719-3.84 3.84-3.84c2.121 0 3.84 1.719 3.84 3.84s-1.719 3.84-3.84 3.84v0z"></path>
<path d="M23.96 9.85c0 0.763-0.619 1.382-1.382 1.382s-1.383-0.619-1.383-1.382c0-0.764 0.619-1.383 1.383-1.383s1.382 0.619 1.382 1.383v0z"></path>
</symbol>
<symbol id="groupar" viewBox="0 0 32 32">
<path d="M0.336 8.336c0.106-0.106 0.232-0.191 0.371-0.248s0.288-0.087 0.438-0.087c0.15 0 0.299 0.030 0.438 0.087s0.265 0.142 0.371 0.248l12.902 12.904 12.902-12.904c0.106-0.106 0.232-0.191 0.371-0.248s0.288-0.087 0.438-0.087c0.15 0 0.299 0.030 0.438 0.087s0.265 0.142 0.371 0.248c0.106 0.106 0.19 0.232 0.248 0.371s0.087 0.288 0.087 0.438-0.030 0.299-0.087 0.438c-0.058 0.139-0.142 0.265-0.248 0.371l-13.711 13.711c-0.106 0.106-0.232 0.191-0.371 0.248s-0.288 0.087-0.438 0.087c-0.15 0-0.299-0.030-0.438-0.087s-0.265-0.142-0.371-0.248l-13.711-13.711c-0.106-0.106-0.191-0.232-0.248-0.371s-0.087-0.288-0.087-0.438c0-0.15 0.030-0.299 0.087-0.438s0.142-0.265 0.248-0.371z"></path>
</symbol>
<symbol id="point" viewBox="0 0 23 32">
<path d="M10.667 6.933c-2.062 0-3.733 1.671-3.733 3.733s1.671 3.733 3.733 3.733c2.061-0.002 3.731-1.672 3.733-3.733 0-2.062-1.671-3.733-3.733-3.733zM10.667 13.333c-1.473 0-2.667-1.194-2.667-2.667s1.194-2.667 2.667-2.667c1.472 0.002 2.665 1.195 2.667 2.667 0 1.473-1.194 2.667-2.667 2.667z"></path>
<path d="M10.667 0c-5.891 0-10.667 4.776-10.667 10.667 0 5.693 9.805 20.469 10.223 21.096 0.099 0.148 0.265 0.237 0.444 0.237s0.345-0.089 0.444-0.237c0.418-0.627 10.223-15.403 10.223-21.096 0-5.891-4.776-10.667-10.667-10.667zM10.667 30.492c-1.944-2.998-9.6-15.111-9.6-19.826 0.006-5.299 4.301-9.594 9.6-9.6 5.299 0.006 9.594 4.301 9.6 9.6 0 4.714-7.656 16.827-9.6 19.826z"></path>
</symbol>
<symbol id="icon-search" viewBox="0 0 32 32">
<path d="M31.831 30.979l-8.723-8.723c4.951-5.421 4.569-13.829-0.852-18.779s-13.829-4.569-18.779 0.852c-4.95 5.421-4.569 13.829 0.852 18.779 5.077 4.636 12.851 4.636 17.927 0l8.723 8.723c0.239 0.231 0.621 0.224 0.852-0.015 0.226-0.233 0.226-0.604 0-0.837zM13.331 25.38c-6.652-0.008-12.042-5.398-12.050-12.050 0-6.655 5.395-12.050 12.050-12.050s12.050 5.395 12.050 12.050c0 6.655-5.395 12.050-12.050 12.050z"></path>
</symbol>
<symbol id="heart" viewBox="0 0 32 32">
<path d="M23.2 1.333c-2.867 0.004-5.552 1.403-7.2 3.748-1.648-2.346-4.333-3.744-7.2-3.748-4.688 0-8.8 4.362-8.8 9.333 0 4.845 2.736 9.836 7.912 14.432 2.398 2.126 5.029 3.973 7.843 5.508 0.154 0.079 0.336 0.079 0.49 0 2.812-1.535 5.442-3.383 7.84-5.508 5.179-4.596 7.915-9.587 7.915-14.432 0-4.972-4.112-9.333-8.8-9.333v0zM16 29.527c-1.959-1.081-14.933-8.633-14.933-18.86 0-4.404 3.613-8.267 7.733-8.267 2.791 0.005 5.364 1.511 6.735 3.942 0.103 0.157 0.277 0.251 0.465 0.251s0.362-0.094 0.465-0.251c1.371-2.431 3.944-3.937 6.735-3.942 4.12 0 7.733 3.863 7.733 8.267 0 10.227-12.975 17.779-14.933 18.86z"></path>
</symbol>
<symbol id="internet" viewBox="0 0 32 32">
<path d="M23.184 11.631c-0.017-0.025-0.037-0.048-0.061-0.066-0.812-0.911-1.807-1.641-2.92-2.14s-2.32-0.758-3.541-0.758c-1.221 0-2.427 0.258-3.541 0.758s-2.109 1.229-2.92 2.14c-0.023 0.018-0.042 0.039-0.058 0.064v0.007c-1.096 1.253-1.807 2.795-2.049 4.441s-0.005 3.327 0.683 4.843c0.688 1.515 1.798 2.8 3.198 3.701s3.029 1.38 4.693 1.38 3.294-0.479 4.693-1.38c1.399-0.901 2.51-2.186 3.198-3.701s0.925-3.196 0.683-4.843c-0.242-1.646-0.954-3.188-2.049-4.441l-0.008-0.004zM22.913 22.515c-0.615-0.359-1.268-0.649-1.947-0.865 0.421-1.309 0.643-2.673 0.659-4.047h3.157c-0.058 1.8-0.715 3.53-1.869 4.914v-0.001zM8.545 17.603h3.157c0.016 1.375 0.238 2.74 0.659 4.049-0.679 0.216-1.332 0.506-1.947 0.865-1.153-1.384-1.811-3.113-1.869-4.914zM10.434 12.128c0.612 0.356 1.262 0.644 1.936 0.858-0.427 1.317-0.653 2.691-0.669 4.076h-3.157c0.059-1.81 0.724-3.547 1.889-4.934zM16.934 13.629c1.19-0.017 2.372-0.182 3.521-0.493 0.405 1.27 0.619 2.593 0.634 3.926h-4.155v-3.433zM16.934 13.087v-3.861c1.373 0.153 2.573 1.461 3.331 3.399-1.087 0.29-2.206 0.445-3.331 0.462zM16.392 13.087c-1.125-0.017-2.244-0.172-3.331-0.462 0.758-1.938 1.958-3.246 3.331-3.399v3.861zM16.392 13.629v3.433h-4.149c0.013-1.332 0.225-2.656 0.628-3.926 1.149 0.31 2.331 0.476 3.521 0.493zM12.243 17.603h4.149v3.403c-1.19 0.018-2.372 0.184-3.521 0.495-0.401-1.261-0.612-2.575-0.628-3.899zM16.392 21.548v3.89c-1.379-0.154-2.589-1.473-3.342-3.426 1.091-0.292 2.213-0.447 3.342-0.464zM16.934 21.548c1.129 0.017 2.251 0.173 3.342 0.464-0.753 1.953-1.963 3.272-3.342 3.426v-3.89zM16.934 21.006v-3.403h4.149c-0.016 1.323-0.228 2.636-0.628 3.897-1.148-0.311-2.331-0.477-3.521-0.494zM21.625 17.062c-0.016-1.385-0.242-2.759-0.669-4.076 0.675-0.215 1.324-0.502 1.936-0.858 1.165 1.387 1.83 3.124 1.889 4.934h-3.157zM22.525 11.717c-0.557 0.312-1.144 0.566-1.752 0.758-0.5-1.283-1.193-2.317-2.006-2.988 1.433 0.386 2.732 1.157 3.758 2.229zM14.559 9.488c-0.813 0.666-1.505 1.703-2.004 2.988-0.609-0.192-1.196-0.446-1.752-0.758 1.025-1.072 2.324-1.843 3.756-2.229zM10.782 22.928c0.559-0.316 1.149-0.572 1.76-0.766 0.501 1.297 1.197 2.345 2.015 3.015-1.441-0.389-2.748-1.167-3.775-2.248zM18.772 25.177c0.813-0.677 1.514-1.718 2.015-3.015 0.612 0.194 1.202 0.451 1.76 0.766-1.029 1.083-2.337 1.861-3.779 2.248h0.004z"></path>
</symbol>
<symbol id="linkedin" viewBox="0 0 32 32">
<path d="M27.942 28.8v-0.001h0.006v-8.919c0-4.363-0.939-7.725-6.040-7.725-2.452 0-4.098 1.346-4.77 2.621h-0.071v-2.214h-4.837v16.237h5.036v-8.040c0-2.117 0.401-4.164 3.023-4.164 2.583 0 2.622 2.416 2.622 4.3v7.905h5.031z"></path>
<path d="M4.031 12.564h5.042v16.237h-5.042v-16.237z"></path>
<path d="M6.55 4.48c-1.612 0-2.92 1.308-2.92 2.92s1.308 2.948 2.92 2.948c1.612 0 2.92-1.336 2.92-2.948s-1.309-2.92-2.92-2.92v0z"></path>
</symbol>
<symbol id="education" viewBox="0 0 32 32">
<path d="M28.653 13.587l-1.333-0.733-12-6.667h-0.147c-0.082-0.035-0.167-0.061-0.253-0.080h-0.493c-0.091 0.019-0.18 0.045-0.267 0.080h-0.147l-12 6.667c-0.205 0.116-0.376 0.285-0.495 0.489s-0.181 0.435-0.181 0.671 0.063 0.467 0.181 0.671c0.119 0.204 0.289 0.373 0.495 0.489l3.32 1.84v6.32c0 1.061 0.421 2.078 1.172 2.828s1.768 1.172 2.828 1.172h10.667c1.061 0 2.078-0.421 2.828-1.172s1.172-1.768 1.172-2.828v-6.32l2.667-1.493v3.813c0 0.354 0.14 0.693 0.391 0.943s0.589 0.391 0.943 0.391 0.693-0.141 0.943-0.391c0.25-0.25 0.391-0.589 0.391-0.943v-4.587c-0-0.236-0.064-0.468-0.183-0.672s-0.291-0.372-0.497-0.488zM21.333 23.333c0 0.354-0.141 0.693-0.391 0.943s-0.589 0.391-0.943 0.391h-10.667c-0.354 0-0.693-0.141-0.943-0.391s-0.391-0.589-0.391-0.943v-4.84l6.013 3.333 0.2 0.080h0.12c0.111 0.014 0.223 0.014 0.333 0 0.111 0.014 0.223 0.014 0.333 0h0.12c0.071-0.015 0.138-0.042 0.2-0.080l6.013-3.333v4.84zM14.667 19.147l-9.253-5.147 9.253-5.147 9.253 5.147-9.253 5.147z"></path>
</symbol>
<symbol id="contactList" viewBox="0 0 32 32">
<path d="M22.667 2.667h-13.333c-1.061 0-2.078 0.421-2.828 1.172s-1.172 1.768-1.172 2.828v18.667c0 1.061 0.421 2.078 1.172 2.828s1.768 1.172 2.828 1.172h13.333c1.061 0 2.078-0.421 2.828-1.172s1.172-1.768 1.172-2.828v-18.667c0-1.061-0.421-2.078-1.172-2.828s-1.768-1.172-2.828-1.172zM24 25.333c0 0.354-0.141 0.693-0.391 0.943s-0.589 0.391-0.943 0.391h-13.333c-0.354 0-0.693-0.141-0.943-0.391s-0.391-0.589-0.391-0.943v-18.667c0-0.354 0.14-0.693 0.391-0.943s0.589-0.391 0.943-0.391h13.333c0.354 0 0.693 0.14 0.943 0.391s0.391 0.589 0.391 0.943v18.667zM19.173 14.4c0.529-0.689 0.819-1.531 0.827-2.4 0-1.061-0.421-2.078-1.172-2.828s-1.768-1.172-2.828-1.172c-1.061 0-2.078 0.421-2.828 1.172s-1.172 1.768-1.172 2.828c0.008 0.869 0.298 1.711 0.827 2.4-0.902 0.668-1.57 1.603-1.91 2.673s-0.333 2.219 0.018 3.285c0.352 1.066 1.030 1.993 1.94 2.651s2.003 1.012 3.125 1.012c1.122 0 2.216-0.354 3.125-1.012s1.588-1.585 1.94-2.651c0.351-1.066 0.358-2.215 0.018-3.285s-1.008-2.005-1.91-2.673zM16 10.667c0.264 0 0.521 0.078 0.741 0.225s0.39 0.355 0.491 0.598 0.127 0.512 0.076 0.77c-0.051 0.259-0.178 0.496-0.365 0.683s-0.424 0.313-0.683 0.365-0.527 0.025-0.77-0.076c-0.244-0.101-0.452-0.272-0.598-0.491s-0.225-0.477-0.225-0.741c0-0.354 0.141-0.693 0.391-0.943s0.589-0.391 0.943-0.391zM16 21.333c-0.527 0-1.043-0.156-1.481-0.449s-0.78-0.709-0.982-1.197c-0.202-0.487-0.255-1.023-0.152-1.541s0.357-0.992 0.73-1.365 0.848-0.627 1.365-0.73c0.517-0.103 1.053-0.050 1.541 0.152s0.904 0.544 1.197 0.982c0.293 0.439 0.449 0.954 0.449 1.481 0 0.707-0.281 1.385-0.781 1.886s-1.178 0.781-1.886 0.781z"></path>
</symbol>
<symbol id="network" viewBox="0 0 31 32">
<path d="M16.639 30.72c-7.765 0-14.079-6.315-14.079-14.080s6.314-14.080 14.079-14.080c7.765 0 14.081 6.315 14.081 14.080s-6.316 14.080-14.081 14.080zM16.669 4.18c-3.273 0.004-6.412 1.316-8.726 3.648s-3.617 5.494-3.621 8.792c0.003 3.299 1.305 6.461 3.62 8.794s5.453 3.645 8.727 3.649c3.274-0.004 6.413-1.316 8.728-3.648s3.617-5.495 3.621-8.794c-0.004-3.299-1.306-6.461-3.621-8.793s-5.454-3.644-8.727-3.648z"></path>
<path d="M15.36 3.2h1.28v26.88h-1.28v-26.88z"></path>
<path d="M3.84 15.36h25.6v1.28h-25.6v-1.28z"></path>
<path d="M5.12 10.24h23.040v1.28h-23.040v-1.28z"></path>
<path d="M5.12 21.76h23.040v1.28h-23.040v-1.28z"></path>
<path d="M15.804 30.72c-4.936-2.422-8.124-7.974-8.124-14.147 0-6.030 3.085-11.531 7.865-14.013l0.876 1.687c-4.157 2.163-6.841 7-6.841 12.326 0 5.45 2.773 10.333 7.059 12.436l-0.836 1.71z"></path>
<path d="M17.57 30.72l-0.93-1.691c4.239-2.171 6.978-7.049 6.978-12.425 0-5.314-2.693-10.168-6.857-12.364l0.949-1.679c4.792 2.524 7.89 8.037 7.89 14.044 0.002 6.080-3.153 11.619-8.030 14.116z"></path>
</symbol>
<symbol id="twitter" viewBox="0 0 32 32">
<path d="M27.95 8.184c-0.904 0.411-1.868 0.684-2.873 0.816 1.034-0.64 1.822-1.645 2.193-2.856-0.964 0.596-2.028 1.016-3.162 1.251-0.915-1.010-2.219-1.635-3.642-1.635-2.76 0-4.983 2.322-4.983 5.169 0 0.41 0.034 0.803 0.116 1.178-4.145-0.21-7.813-2.269-10.277-5.405-0.43 0.774-0.682 1.659-0.682 2.612 0 1.79 0.889 3.376 2.215 4.294-0.801-0.016-1.587-0.257-2.253-0.636 0 0.016 0 0.036 0 0.057 0 2.511 1.728 4.597 3.995 5.077-0.406 0.115-0.848 0.17-1.307 0.17-0.319 0-0.641-0.019-0.944-0.088 0.646 2.046 2.479 3.551 4.659 3.6-1.696 1.375-3.85 2.204-6.182 2.204-0.409 0-0.801-0.019-1.193-0.071 2.209 1.476 4.826 2.319 7.649 2.319 9.175 0 14.191-7.877 14.191-14.705 0-0.228-0.008-0.449-0.018-0.668 0.989-0.728 1.821-1.637 2.499-2.683z"></path>
</symbol>
<symbol id="burger" viewBox="0 0 32 32">
<path d="M32 26.667h-21.333v-3.556h21.333v3.556zM32 17.778h-32v-3.556h32v3.556zM32 8.889h-21.333v-3.556h21.333v3.556z"></path>
</symbol>
<symbol id="whatsapp" viewBox="0 0 34 32">
<path fill="#fff" style="fill: var(--color1, #fff)" d="M27.992 4.514c-2.907-2.909-6.773-4.513-10.892-4.514-8.487 0-15.394 6.905-15.398 15.392-0.001 2.713 0.708 5.361 2.055 7.695l-2.184 7.976 8.162-2.14c2.249 1.226 4.781 1.873 7.358 1.873h0.006c8.486 0 15.394-6.906 15.398-15.393 0.002-4.113-1.599-7.98-4.506-10.89zM17.101 28.197h-0.005c-2.296-0.001-4.549-0.618-6.514-1.783l-0.467-0.277-4.844 1.27 1.293-4.721-0.304-0.484c-1.281-2.037-1.958-4.391-1.957-6.809 0.003-7.054 5.744-12.793 12.803-12.793 3.418 0.001 6.632 1.334 9.048 3.752s3.746 5.633 3.745 9.051c-0.003 7.055-5.744 12.794-12.798 12.794z"></path>
<path fill="#fff" style="fill: var(--color1, #fff)" d="M17.101 28.197h-0.005c-2.296-0.001-4.549-0.618-6.514-1.783l-0.467-0.277-4.844 1.27 1.293-4.721-0.304-0.484c-1.281-2.037-1.958-4.391-1.957-6.809 0.003-7.054 5.744-12.793 12.803-12.793 3.418 0.001 6.632 1.334 9.048 3.752s3.746 5.633 3.745 9.051c-0.003 7.055-5.744 12.794-12.798 12.794z"></path>
<path fill="#2a172d" style="fill: var(--color2, #2a172d)" d="M11.935 22.848c-0.173-0.104-0.341-0.19-0.34-0.747 0.002-2.747 0.010-9.102-0-11.45-0.007-1.482-0.2-2.436 1.091-2.436 3.487-0.002 8.585-0.658 9.771 2.236 1.199 2.927-0.74 4.343-1.165 5.096 2.905 0.816 3.068 7.356-3.145 7.356-1.331 0-3.203 0.007-5.369 0.009-0.511 0-0.733 0.001-0.842-0.065zM14.623 20.451c0.587 0 1.97 0 3.156-0.002 1.343-0.002 2.539-0.63 2.509-1.967-0.022-1.26-0.86-1.673-2.023-1.788-1.108 0.011-2.375 0.011-3.643 0.011v3.747h0zM14.623 14.174c2.337-0.032 3.238 0.094 4.514-0.225 0.877-0.498 1.26-2.343 0.005-2.97-0.872-0.435-3.447-0.287-4.519-0.242v3.437z"></path>
</symbol>
<symbol id="youtube" viewBox="0 0 49 32">
<path  style="fill: var(--color1, #fff)" d="M46.625 3.084c-1.263-2.246-2.633-2.659-5.423-2.816-2.787-0.189-9.795-0.268-15.866-0.268-6.083 0-13.094 0.079-15.878 0.265-2.784 0.16-4.157 0.57-5.431 2.819-1.3 2.243-1.969 6.106-1.969 12.908 0 0.006 0 0.009 0 0.009 0 0.006 0 0.009 0 0.009v0.006c0 6.772 0.669 10.665 1.969 12.884 1.274 2.246 2.644 2.653 5.428 2.842 2.787 0.163 9.798 0.259 15.881 0.259 6.071 0 13.079-0.096 15.869-0.256 2.79-0.189 4.16-0.596 5.423-2.842 1.312-2.22 1.975-6.112 1.975-12.884 0 0 0-0.009 0-0.015 0 0 0-0.006 0-0.009 0-6.804-0.663-10.668-1.978-12.911z"></path>
<path  style="fill: var(--color2, #2a172d)" d="M19.51 24.729v-17.455l14.546 8.727-14.546 8.727z"></path>
</symbol>
<symbol id="zoom" viewBox="0 0 32 32">
<path d="M25.235 24.738l-5.088-5.088c2.888-3.162 2.665-8.067-0.497-10.954s-8.067-2.665-10.954 0.497c-2.888 3.162-2.665 8.067 0.497 10.955 2.961 2.704 7.496 2.704 10.458 0l5.088 5.088c0.14 0.135 0.362 0.131 0.497-0.009 0.132-0.136 0.132-0.352 0-0.488zM14.443 21.472c-3.88-0.004-7.024-3.149-7.029-7.029 0-3.882 3.147-7.029 7.029-7.029s7.029 3.147 7.029 7.029c0 3.882-3.147 7.029-7.029 7.029z"></path>
</symbol>
<symbol id="arrowForward" viewBox="0 0 16 32">
<path d="M0.336 31.664c-0.106-0.106-0.191-0.232-0.248-0.371s-0.087-0.288-0.087-0.438c0-0.15 0.030-0.299 0.087-0.438s0.142-0.265 0.248-0.371l12.904-12.902-12.904-12.902c-0.106-0.106-0.191-0.232-0.248-0.371s-0.087-0.288-0.087-0.438c0-0.15 0.030-0.299 0.087-0.438s0.142-0.265 0.248-0.371c0.106-0.106 0.232-0.191 0.371-0.248s0.288-0.087 0.438-0.087c0.15 0 0.299 0.030 0.438 0.087s0.265 0.142 0.371 0.248l13.711 13.711c0.106 0.106 0.191 0.232 0.248 0.371s0.087 0.288 0.087 0.438c0 0.15-0.030 0.299-0.087 0.438s-0.142 0.265-0.248 0.371l-13.711 13.711c-0.106 0.106-0.232 0.191-0.371 0.249s-0.288 0.087-0.438 0.087c-0.15 0-0.299-0.030-0.438-0.087s-0.265-0.142-0.371-0.249z"></path>
</symbol>
<symbol id="arrowBack" viewBox="0 0 16 32">
<path d="M15.664 0.336c0.106 0.106 0.191 0.232 0.248 0.371s0.087 0.288 0.087 0.438c0 0.15-0.030 0.299-0.087 0.438s-0.142 0.265-0.248 0.371l-12.904 12.902 12.904 12.902c0.106 0.106 0.191 0.232 0.248 0.371s0.087 0.288 0.087 0.438c0 0.15-0.030 0.299-0.087 0.438s-0.142 0.265-0.248 0.371c-0.106 0.106-0.232 0.191-0.371 0.248s-0.288 0.087-0.438 0.087c-0.15 0-0.299-0.030-0.438-0.087s-0.265-0.142-0.371-0.248l-13.711-13.711c-0.106-0.106-0.191-0.232-0.248-0.371s-0.087-0.288-0.087-0.438c0-0.15 0.030-0.299 0.087-0.438s0.142-0.265 0.248-0.371l13.711-13.711c0.106-0.106 0.232-0.191 0.371-0.249s0.288-0.087 0.438-0.087c0.15 0 0.299 0.030 0.438 0.087s0.265 0.142 0.371 0.249z"></path>
</symbol>
<symbol id="person" viewBox="0 0 30 32">
<path d="M14.708 0c-4.572 0-8.292 3.72-8.292 8.292s3.72 8.292 8.292 8.292c4.572 0 8.292-3.72 8.292-8.292s-3.72-8.292-8.292-8.292z"></path>
<path d="M25.025 22.001c-2.27-2.305-5.279-3.574-8.474-3.574h-3.685c-3.194 0-6.204 1.27-8.474 3.574-2.259 2.294-3.503 5.321-3.503 8.525 0 0.509 0.413 0.921 0.921 0.921h25.796c0.509 0 0.921-0.413 0.921-0.921 0-3.204-1.244-6.232-3.503-8.525z"></path>
</symbol>
</defs>
</svg>

